<svg xmlns="http://www.w3.org/2000/svg" data-name="Layer 1" viewBox="0 0 1514.92 480.08">
  <path d="M349.46 367.01H305.1a26 26 0 01-5.29-.51 1 1 0 01-.77-1.08c.15-.87.29-1.75.5-2.61q1.59-6.6 3.22-13.19 4.37-17.76 8.76-35.52 7.28-29.4 14.57-58.79c2.36-9.57 4.65-19.15 7-28.72q6.19-25.06 12.41-50.06c2.48-10 4.75-20 7-30 2.54-11.27 5-22.57 7.11-33.92.3-1.59.42-3.2.62-4.81a2.89 2.89 0 000-.72 42.2 42.2 0 00-1.32-8.36 12.53 12.53 0 00-7.49-8.36 20.83 20.83 0 00-7.53-1.62 28 28 0 00-12.48 2.52 25.82 25.82 0 00-7 4.66 34 34 0 00-7.64 10.81 103.71 103.71 0 00-4.67 12.8c-2.94 9.33-5.41 18.78-7.82 28.25-1.65 6.5-3.36 13-4.93 19.5-4.44 18.45-9 36.87-13.59 55.29q-5.55 22.47-11.11 44.93-3.66 14.82-7.29 29.64-3.18 12.95-6.36 25.88-4.72 19.18-9.49 38.34c-.21.86-.43 1.72-.68 2.58a3.44 3.44 0 01-1.64 2 7.66 7.66 0 01-3.22 1c-.72.07-1.45.07-2.18.08h-90.65c-1 0-1.94 0-2.9-.08a.92.92 0 01-.84-1c.09-.71.19-1.43.34-2.14 1.39-6.65 3.14-13.2 4.76-19.79 1.9-7.68 3.84-15.36 5.75-23q7.34-29.5 14.66-59 3.17-12.81 6.28-25.65 2.14-8.82 4.29-17.66c1.6-6.59 3.18-13.19 4.82-19.77q6.32-25.52 12.67-51 2.5-10.11 4.92-20.24a75.9 75.9 0 001.78-10.26c.24-2.57.61-5.13.78-7.71.13-2.09.12-4.2.06-6.3a16 16 0 00-1-5 13.31 13.31 0 00-8.49-8.38 20.26 20.26 0 00-6.41-1.14 31.87 31.87 0 00-11.39 1.81 25.23 25.23 0 00-11.85 8.88 35.6 35.6 0 00-4.54 8c-.54 1.35-1.1 2.7-1.58 4.07q-2.62 7.42-4.84 15c-3.93 13.41-7.27 27-10.61 40.54-2.36 9.57-4.66 19.15-7 28.72q-6 24.46-12.1 48.92-4.86 19.63-9.7 39.28c-1.78 7.22-3.53 14.44-5.3 21.65l-5.88 23.76q-3.17 12.94-6.35 25.89c-.59 2.43-1.16 4.87-1.75 7.3-.14.55-.29 1.09-.48 1.62a3.63 3.63 0 01-2.79 2.44 11.79 11.79 0 01-1.67.24H3.95a10.33 10.33 0 01-1.93-.14 2.3 2.3 0 01-2-2.6 16 16 0 01.41-2.38c.6-2.52 1.24-5 1.86-7.53q5.3-21.29 10.58-42.56 3.66-14.82 7.29-29.64 7.29-29.4 14.6-58.79 4.55-18.35 9-36.7 4.4-17.88 8.81-35.76 3.18-12.94 6.35-25.88c2.26-9.18 4.49-18.36 6.77-27.53q7-28.46 14.11-56.91c1.92-7.76 3.75-15.55 5.62-23.32.22-.94.44-1.89.7-2.82a11.24 11.24 0 01.59-1.59 3.09 3.09 0 012.41-1.82c1.2-.17 2.41-.28 3.61-.37.65-.05 1.3 0 1.94 0h81.44c2.35 0 4.67.33 7 .42a2.91 2.91 0 01.7.19 1 1 0 01.66.93 11.77 11.77 0 01-.23 1.67c-.73 3.06-1.49 6.12-2.24 9.18q-3.21 13-6.41 26.12a5.88 5.88 0 00-.16 1.18.47.47 0 00.25.35.6.6 0 00.45-.07 6.92 6.92 0 001.71-2c2.32-3.41 4.7-6.77 7.28-10 1.56-1.95 3.21-3.84 4.85-5.73 1-1.22 2.12-2.44 3.26-3.58a97 97 0 0120.81-16.13 86.38 86.38 0 0117.86-7.43c3.33-1 6.67-1.93 10-2.93A60.44 60.44 0 01250.42 1c.64-.09 1.29-.09 1.93-.14s1.45-.11 2.17-.19a49.6 49.6 0 019.2-.05c1.37.11 2.73.21 4.1.24a47.88 47.88 0 016.77.4c.32.05.65 0 1 .06a47 47 0 0121 6 41.4 41.4 0 018.37 6.17 47.16 47.16 0 0111 16.11 75.31 75.31 0 013.89 13q1 4.38 2 8.75c.05.24.13.47.2.7a.54.54 0 00.8.25 10.28 10.28 0 001.15-1.23c1-1.29 1.89-2.62 2.84-3.93a134.66 134.66 0 0111.38-14.2c.88-1 1.7-2 2.62-2.86a95 95 0 0120.06-15.55 80.8 80.8 0 0113.22-6c3.73-1.3 7.51-2.48 11.31-3.58q3.84-1.11 7.67-2.25a63 63 0 019.72-2 92.42 92.42 0 0112.34-.28c2.39.39 4.82.36 7.22.73 1.59.25 3.21.35 4.81.58a72.5 72.5 0 0114.8 3.6 41.6 41.6 0 0115.16 9.32 38.44 38.44 0 015.66 6.93 54.53 54.53 0 015 10.2 59.26 59.26 0 013.1 12.19 53.13 53.13 0 01.69 7.23c0 1.7.2 3.39.26 5.08v3.39c-.06 1.7-.22 3.39-.26 5.08-.06 2.91-.44 5.79-.78 8.68-.47 4.09-1.17 8.15-2 12.2-.9 4.68-2 9.3-3.18 13.93q-3.21 13.06-6.41 26.12c-1.61 6.59-3.18 13.19-4.81 19.77-3.89 15.68-7.82 31.35-11.69 47-2.87 11.6-5.68 23.22-8.54 34.83q-5.4 21.87-10.83 43.74-4.77 19.29-9.52 38.58-5.17 20.94-10.37 41.86c-.93 3.77-1.82 7.54-2.76 11.3a12.5 12.5 0 01-.7 2.06 3.26 3.26 0 01-1.93 1.74 6.44 6.44 0 01-2.13.41h-46.49zm496.76 7.82h-3.48a62.32 62.32 0 01-17.42-2.64 55.21 55.21 0 01-14.48-6.68 31 31 0 01-11.6-14 47.3 47.3 0 01-3.07-10.19c-.55-2.94-1-5.89-1.51-8.83-.14-.8-.32-1.59-.49-2.37a.26.26 0 00-.37-.21.29.29 0 00-.18.14c-.21.7-.43 1.39-.6 2.09q-5.35 21.65-10.69 43.28-4.44 18-8.87 36-2.93 11.9-5.82 23.77-2.48 10.13-5 20.24-2.28 9.3-4.58 18.59c-.26 1-.57 2-.84 3a3.88 3.88 0 01-3.72 2.93 13.74 13.74 0 01-1.7 0h-92.83c-1 0-1.93-.07-2.9-.13a.73.73 0 01-.56-.7 11.42 11.42 0 01.19-1.43q1.65-7 3.34-13.9 3.6-14.7 7.22-29.41 6.12-24.69 12.26-49.38 3.11-12.47 6.2-24.93 3.88-15.75 7.76-31.52 5.55-22.47 11.11-44.93 2.7-10.94 5.35-21.88c1.63-6.67 3.24-13.34 4.89-20q6.81-27.51 13.64-55 4.93-19.55 9.75-39.21 3.6-14.58 7.17-29.18 3.89-15.76 7.76-31.52 6.78-27.4 13.58-54.8 2.07-8.34 4.11-16.7a18.93 18.93 0 01.53-1.86 3.83 3.83 0 012.94-2.6 12.79 12.79 0 012.89-.25h85.56a34.37 34.37 0 015.07.34l.48.07a1.24 1.24 0 011.16 1.53c-.13.71-.29 1.43-.46 2.13-.49 2-1 4.08-1.51 6.12l-6.39 26.12c-.5 2-1 4.08-1.46 6.13a9.43 9.43 0 00-.14 1.19c0 .23.24.53.44.51a.84.84 0 00.44-.12 5.6 5.6 0 00.78-.91c.7-1.09 1.37-2.19 2-3.29a146.25 146.25 0 019.91-14.35c1.45-1.84 3-3.62 4.52-5.39 1.33-1.52 2.68-3 4.11-4.44a84.11 84.11 0 0117.16-13.36 86.5 86.5 0 0125.62-10c2.53-.53 5.09-.86 7.66-1.18 2.41-.3 4.83-.32 7.24-.54a86.37 86.37 0 019-.25c1 0 1.94.11 2.9.18.57 0 1.13.12 1.69.13a41.72 41.72 0 0115.71 3.65 49.7 49.7 0 0111.42 6.82 52.72 52.72 0 018.56 8.53 55 55 0 014 5.77 49.07 49.07 0 014.82 11.07 119.22 119.22 0 013.8 17c.28 1.91.4 3.85.68 5.77.45 3.13.33 6.29.59 9.42.29 3.31.23 6.62.24 9.93a15.5 15.5 0 01-.06 1.93 57.59 57.59 0 00-.31 6.29 43 43 0 01-.36 5.56c-.1.64-.07 1.29-.12 1.94-.1 1.36-.22 2.73-.33 4.1 0 .32-.08.64-.1 1-.16 4.12-.7 8.21-1.14 12.3-.46 4.33-1.08 8.65-1.69 13-.64 4.55-1.33 9.11-2 13.65-.51 3.19-1.13 6.36-1.69 9.54-1.49 8.43-3.33 16.8-5.25 25.14-1.36 5.9-2.84 11.77-4.35 17.64-3.68 14.31-7.5 28.59-11.69 42.77a447.41 447.41 0 01-15.31 44.16c-1.54 3.73-3.2 7.42-4.87 11.1q-2 4.41-4.18 8.74a227.91 227.91 0 01-16.55 27.91 173.62 173.62 0 01-12.32 15.88 99.76 99.76 0 01-20.25 18 89 89 0 01-24.56 11.3 99.2 99.2 0 01-13.74 2.87 93.31 93.31 0 01-14.71.81zm51.72-266.3v-2.9a25 25 0 00-1.37-7.36 12.86 12.86 0 00-7.67-7.92 22.05 22.05 0 00-7.32-1.48 25.6 25.6 0 00-7.89 1.05 25.92 25.92 0 00-11.21 6.48 36.23 36.23 0 00-5.83 7.4 125 125 0 00-7.33 14.47 219.6 219.6 0 00-9.82 28.11q-2.65 9.45-4.92 19c-1.71 7.23-3.53 14.43-5.22 21.67-2 8.41-3.87 16.83-5.77 25.26-1.21 5.36-2.38 10.72-3.55 16.08s-2.28 10.42-3.38 15.63c-.61 2.92-1.2 5.85-1.69 8.8a53 53 0 00-.64 5.77c-.21 3.79-.2 7.59 0 11.38a39.81 39.81 0 001.13 7.91 13 13 0 008.35 9.65 24.59 24.59 0 0011.69 1.16 28.63 28.63 0 0017.12-10.16 46.64 46.64 0 005.13-7.92 175.13 175.13 0 009.64-22.46c4-11.26 7.27-22.77 10.22-34.36 4.41-17.37 8.93-34.71 12.74-52.24.92-4.26 1.87-8.51 2.75-12.78 1-4.82 1.84-9.67 2.6-14.54q1.45-9.45 3-18.9a2.29 2.29 0 00-.39-2.05 2.14 2.14 0 01-.35-1.38c-.03-1.15-.02-2.28-.02-3.37zM1514.92 89c0 2.26-.06 4.53-.1 6.79a31.3 31.3 0 01-.34 4.83 9.55 9.55 0 00-.1 1.2c-.17 3.56-.72 7.07-1.24 10.59-.67 4.47-1.41 8.93-2.14 13.39-.76 4.62-1.5 9.25-2.32 13.86q-1.71 9.54-3.51 19.06c-1.41 7.37-2.91 14.73-4.66 22-1.42 5.89-2.83 11.78-4.34 17.65-1.72 6.72-3.65 13.4-5.64 20-2.63 8.83-5.5 17.58-8.49 26.29-2.62 7.64-5.41 15.22-8.52 22.67s-6.66 14.9-10.51 22.1a220.38 220.38 0 01-11.37 18.89 188.82 188.82 0 01-12.08 16.21 146.68 146.68 0 01-14 14.45 135.2 135.2 0 01-23.87 17.36 140.77 140.77 0 01-48.52 16.7c-3 .44-6.07 1-9.12 1.23a95.37 95.37 0 01-10.15.65c-1.45 0-2.9.15-4.35.21-2.66.11-5.33.05-8 0-1.37 0-2.74-.16-4.11-.21s-2.91-.05-4.36-.1c-.89 0-1.77-.14-2.66-.22-.32 0-.64-.12-1-.12-2.59 0-5.14-.44-7.72-.61-1.69-.12-3.38-.32-5.06-.56-2.87-.41-5.75-.82-8.61-1.33a96.36 96.36 0 01-19.76-5.66 74 74 0 01-15.57-8.81 62.23 62.23 0 01-14-14.28 63.69 63.69 0 01-7.23-13.4 79.28 79.28 0 01-4.42-15.84c-.41-2.39-.86-4.77-1.16-7.17s-.66-5-.74-7.47c0-1-.15-2.09-.23-3.14 0-.64-.14-1.29-.14-1.93v-12.61c.43-3.36.27-6.77.75-10.14.26-1.83.38-3.69.58-5.54.44-4.09 1-8.16 1.73-12.23 1.36-8.12 2.94-16.2 4.46-24.3q2.63-13.93 5.72-27.76c2.54-11.35 5.49-22.6 8.64-33.8 3.32-11.74 7.07-23.34 11.1-34.86q4.41-12.57 9.53-24.89a265.55 265.55 0 0111.55-24.28 180.91 180.91 0 0117.32-26.34c2.45-3.11 5-6.16 7.71-9 1.45-1.52 2.82-3.12 4.3-4.6a157.46 157.46 0 0124.53-20.07 141.49 141.49 0 0116.16-9.3 124.3 124.3 0 0129-9.91q4.86-1 9.77-1.71c2-.29 4-.44 6-.66l7.46-.79h.24l7.73-.62 1.92-.18 3.14-.29c.72-.07 1.45-.08 2.17-.18a19.58 19.58 0 014.59-.06c1 .08 1.93.17 2.9.2 2.42.06 4.83.17 7.25.4s4.66.46 7 .74c2.81.33 5.59.83 8.37 1.33a144.47 144.47 0 0117.62 4.39 80.78 80.78 0 0113.61 5.71 68.93 68.93 0 0111.81 8 63.8 63.8 0 0117.24 23.39 92.79 92.79 0 015.71 18.48 112.9 112.9 0 011.77 11.25 74.38 74.38 0 01.66 9.9v5.09zm-100.7 12.53c0-.73 0-1.46-.1-2.18-.33-4-.93-8-1.43-12a12 12 0 00-.47-2.12 8.4 8.4 0 00-2.37-3.89 14.16 14.16 0 00-3.84-2.49 26.91 26.91 0 00-8.69-2 12.23 12.23 0 00-2.18.07c-.88.1-1.76.22-2.63.4a22.78 22.78 0 00-8.08 3.15 23.11 23.11 0 00-6.55 6.37c-2.42 3.54-4.77 7.12-6.86 10.86a83.15 83.15 0 00-7.22 16.11c-1.64 5.33-3.34 10.64-4.94 16q-2.85 9.53-5.57 19.07c-2.27 8-4.48 16-6.69 24-1.25 4.52-2.45 9-3.68 13.56q-4.34 16-7.87 32.24c-1.61 7.42-3.11 14.86-4.67 22.29-1 4.9-1.81 9.85-2.61 14.79-.66 4.14-1.25 8.3-1.86 12.45q-.43 2.88-.83 5.76a2.52 2.52 0 000 1.19 11.74 11.74 0 01.61 4.77 47.47 47.47 0 00.52 7.24 24.92 24.92 0 001.44 5.37 12.1 12.1 0 007.66 7.25 23.62 23.62 0 006.42 1.11 20.36 20.36 0 004.33-.4 25.71 25.71 0 0013.71-6.71 36.7 36.7 0 007.12-9.45 150.9 150.9 0 006.58-13.76 255.31 255.31 0 009.13-26.06c2-6.89 3.9-13.83 5.72-20.79 2.29-8.75 4.66-17.48 6.87-26.25 1.92-7.59 3.72-15.21 5.48-22.85 1.4-6.06 2.68-12.14 4-18.22s2.52-12.18 3.69-18.29 2.21-12.07 3.27-18.11c.73-4.14 1.45-8.28 2-12.43a33.73 33.73 0 00.59-6.05zm-791.3 265.53h-44.35a13.72 13.72 0 01-1.93-.08 2.85 2.85 0 01-2.55-2.53 8.81 8.81 0 01-.07-1.45c0-.81.07-1.62.15-2.42.24-2.33.49-4.66.73-7 .05-.49.12-1 .17-1.45.3-3 .61-5.94.89-8.91.23-2.33.42-4.67.64-7 .08-.8.2-1.6.29-2.4a20.18 20.18 0 00.15-4.11.53.53 0 00-.27-.35.52.52 0 00-.44 0 7.64 7.64 0 00-1 1 17.36 17.36 0 00-1.12 1.58 109 109 0 01-6.53 9 94.71 94.71 0 01-11.46 11.99 90.59 90.59 0 01-14.17 10.12 81.85 81.85 0 01-11.82 5.6 100.55 100.55 0 01-18.43 5 116 116 0 01-20.25 1.57c-1.2 0-2.41-.17-3.62-.26-.32 0-.64-.08-1-.1a68.39 68.39 0 01-12.65-2 78.38 78.38 0 01-16.78-6.23 40.57 40.57 0 01-17.62-17.45 55.59 55.59 0 01-4.6-12 81.84 81.84 0 01-2.06-11.14 63.08 63.08 0 01-.67-8.69v-7a95.5 95.5 0 01.89-11.82 144.24 144.24 0 012.47-14.32q3.74-16.68 8.85-33c2-6.39 4.16-12.74 6.69-18.95a121.13 121.13 0 0112-22.4 113.49 113.49 0 018.59-11.11q3.11-3.57 6.51-6.85a113.46 113.46 0 0118.91-14.68c3-1.88 6.11-3.66 9.27-5.27 2.66-1.36 5.39-2.59 8.12-3.8a217.76 217.76 0 0123.87-8.75c6.63-2.08 13.33-3.9 20-5.71 8.58-2.32 17.16-4.61 25.7-7 6.76-1.91 13.46-4 20.12-6.28a37.27 37.27 0 0020.6-16.4 54.32 54.32 0 005.71-13.32 74.41 74.41 0 002.3-11.14 70.22 70.22 0 00.63-11.6 16.31 16.31 0 00-.85-4.75 14 14 0 00-7.21-8.12 16.43 16.43 0 00-6-1.73 35.6 35.6 0 00-5.06-.42 36.24 36.24 0 00-12.52 2.52 29.32 29.32 0 00-11.34 8.48 44 44 0 00-6.66 11.49c-1.77 4.34-3.36 8.74-4.85 13.18-.83 2.45-1.63 4.91-2.45 7.36-.23.69-.47 1.38-.76 2a4.51 4.51 0 01-3.5 2.69 8.13 8.13 0 01-1.2.12h-77.32a22 22 0 01-4.58-.39l-.7-.16a1.1 1.1 0 01-.8-1.08 15.13 15.13 0 01.35-1.9c1-3.66 2-7.34 3.07-11 1.77-5.79 3.81-11.5 6.14-17.09a154.09 154.09 0 0120.06-35q3.25-4.22 6.85-8.17c1.89-2.1 3.81-4.18 5.85-6.13a141.22 141.22 0 0116.4-13.6 149.86 149.86 0 0121.71-12.72 95.52 95.52 0 0114.26-5.42 177.32 177.32 0 0119.55-4.45c2.15-.37 4.28-.8 6.43-1.16 1.67-.28 3.37-.43 5-.73 2.55-.45 5.15-.43 7.71-.78a37.46 37.46 0 014.11-.17c2.18-.05 4.36 0 6.54-.25a16.3 16.3 0 012.42 0c1.61.06 3.22.17 4.84.21 1.94.06 3.88 0 5.81.1 1.05 0 2.1.15 3.14.24.24 0 .48.08.72.09 2.67.05 5.32.34 8 .53 2.18.16 4.34.43 6.5.69q5.41.66 10.75 1.78a92.86 92.86 0 0125.51 8.95 57.35 57.35 0 0116.23 12.9 54.27 54.27 0 019.16 15 73.21 73.21 0 014.34 15.86c.32 1.83.55 3.67.82 5.51v.24a100.81 100.81 0 01.49 13.79 139.06 139.06 0 01-1.6 14.67c-.8 4.46-1.79 8.87-2.75 13.29-1.42 6.47-2.9 12.92-4.4 19.37-1.24 5.35-2.53 10.69-3.82 16q-3.4 14.13-6.82 28.26-3.63 15.07-7.3 30.14-2.83 11.65-5.7 23.3c-3.86 15.6-7.7 31.2-11.65 46.78-1.85 7.28-3.63 14.58-5.39 21.88-1.69 7-3.25 14-4.55 21.07q-1.43 7.74-2.64 15.52c-1 6.06-1.84 12.14-2.79 18.2a48.08 48.08 0 00-.59 10.38c.07 1.12.18 2.25.3 3.37.17 1.69.36 3.37.54 5.06a3.85 3.85 0 010 .48 2.35 2.35 0 01-2.46 2.68c-.88.07-1.77.06-2.66.06h-43.54zm-68.46-70.44a27 27 0 0011.89-2.09 38.6 38.6 0 0012.74-9.07 44.93 44.93 0 005-6.25 59.47 59.47 0 006.8-13.89c1.5-4.35 2.78-8.78 4.07-13.2 3.06-10.46 5.87-21 8.69-31.53q2.61-9.7 5.2-19.43c.23-.85.45-1.71.64-2.58a2.49 2.49 0 000-1.43c-.06-.18-.43-.4-.59-.31a4.19 4.19 0 00-.82.48c-.77.59-1.48 1.25-2.26 1.82a30.33 30.33 0 01-11.18 5.07c-2.6.6-5.19 1.22-7.76 1.93a77 77 0 00-20 8.53 50.89 50.89 0 00-12.53 10.59 53.21 53.21 0 00-7.52 11.82 88.62 88.62 0 00-5.59 16 127.64 127.64 0 00-2.84 14.24c-.23 1.69-.3 3.38-.52 5.06a33.19 33.19 0 00.14 9.9 19 19 0 003.63 8.61 14 14 0 0011 5.75c.75 0 1.57-.02 1.81-.02zm467.96-39.39h37.8c1.37 0 2.75 0 4.12.09a7.63 7.63 0 011.41.27 1 1 0 01.68.91 17.55 17.55 0 01-.17 1.92c-.49 2.87-1 5.73-1.51 8.59a53 53 0 00-.88 7.21c0 .56-.09 1.13-.16 1.69a18.08 18.08 0 000 4.59c.25 1.92.35 3.85.78 5.75a24.72 24.72 0 002.37 6.59 23 23 0 001.67 2.67 16.65 16.65 0 0012.84 6.78c1.85.11 3.72 0 5.57 0a19 19 0 004.28-.76 39.53 39.53 0 0019.72-12.14 34.14 34.14 0 006.52-10.42c.21-.53.41-1.06.57-1.6a61.6 61.6 0 002.23-9.17 30.73 30.73 0 00.09-8.46 18.08 18.08 0 00-2.37-6.82 28.32 28.32 0 00-6.46-7.79 39.72 39.72 0 00-7.25-4.82c-7.7-3.93-15.42-7.8-23.26-11.45-6.29-2.94-12.67-5.69-19-8.56a129.65 129.65 0 01-21.11-11.77 74 74 0 01-20.77-21.43 73.34 73.34 0 01-6.8-13.36 68.84 68.84 0 01-3.94-16.2 78.87 78.87 0 01-.4-10.64 50.79 50.79 0 01.37-7.5 17.84 17.84 0 00.11-1.93c0-.57 0-1.14.09-1.7.59-5.62 1.24-11.23 2.3-16.79a169.3 169.3 0 014.38-17.87 144.57 144.57 0 0110.73-25.93 135.09 135.09 0 019.27-15.05c2-2.76 4-5.5 6.12-8.13 1.18-1.43 2.36-2.87 3.59-4.26 3.15-3.57 6.38-7.08 9.86-10.35a131.82 131.82 0 0126.32-19.28 152.42 152.42 0 0128-11.92 155.76 155.76 0 0120-5c3.34-.59 6.69-1.06 10-1.5 2.33-.3 4.68-.31 7-.73a12.36 12.36 0 011.93-.1 51 51 0 005.8-.33 14.4 14.4 0 012.18-.08h7.51c1.37 0 2.74.17 4.11.24 1 .06 2.1.1 3.15.13a32.62 32.62 0 015.31.37 8.69 8.69 0 001.45.1 38.26 38.26 0 013.85.36c1.68.21 3.37.37 5 .59a100.18 100.18 0 0128.16 7.74 71.42 71.42 0 0116 10 55 55 0 0111 12.21 58.09 58.09 0 017.14 15.31 76.78 76.78 0 012.64 12.06 51.57 51.57 0 01.68 7.23 8.18 8.18 0 00.06 1.21 50.05 50.05 0 01.28 7.74c0 1-.11 2.09-.18 3.14 0 .73-.15 1.45-.15 2.18a64.43 64.43 0 01-.68 8c-.44 3.93-1.12 7.83-1.94 11.7-.53 2.53-1.11 5.05-1.69 7.57a7.51 7.51 0 01-.5 1.61 4.08 4.08 0 01-4 2.68h-81.91a3.86 3.86 0 01-1.15-.32.85.85 0 01-.54-.75 12.5 12.5 0 01.11-1.93c.53-3.35 1.1-6.69 1.62-10a49.22 49.22 0 00.71-9.16 22.08 22.08 0 00-1.45-7.33 14.08 14.08 0 00-7.14-7.89 19.22 19.22 0 00-6.22-1.91 29.87 29.87 0 00-4.33-.36c-8.09.29-15.38 2.7-21.55 8.09a34 34 0 00-6.34 7.61 39 39 0 00-4.83 11.84 34.34 34.34 0 00-.7 11.56 16.37 16.37 0 006.51 11.74 32 32 0 002.8 1.9c1.17.71 2.38 1.37 3.59 2 2.42 1.29 4.83 2.61 7.3 3.81q6.86 3.36 13.77 6.59c7.24 3.41 14.73 6.21 22.17 9.15a160.66 160.66 0 0117.64 8 79.58 79.58 0 0115.24 10.69c1 .86 2 1.68 2.88 2.59a69.74 69.74 0 0113.8 18.61 68.9 68.9 0 016.39 21 89.14 89.14 0 01.82 15.22c0 .73-.06 1.45-.12 2.18-.09 1.37-.19 2.74-.32 4.1-.18 2.09-.33 4.19-.6 6.27-.34 2.72-.77 5.43-1.18 8.15a159.57 159.57 0 01-3.71 17.28 155.74 155.74 0 01-7.49 21.49 157.5 157.5 0 01-9.82 19.18 164.77 164.77 0 01-12.9 18.45 162.81 162.81 0 01-12 13.35 142 142 0 01-16.42 14 132.51 132.51 0 01-31.25 16.86 155 155 0 01-24.4 6.85c-3.25.64-6.52 1.18-9.78 1.69-1.92.31-3.86.39-5.77.7-2.72.45-5.48.34-8.2.77a17.49 17.49 0 01-2.18.11q-10.17.21-20.35 0c-1.21 0-2.42-.18-3.62-.28-.24 0-.48-.08-.72-.08-2.51 0-5-.41-7.48-.6-1.45-.12-2.9-.3-4.33-.5-4.8-.67-9.6-1.33-14.32-2.43a96.33 96.33 0 01-14.11-4.36 75.48 75.48 0 01-15.31-8.28 49.84 49.84 0 01-7-5.91 55 55 0 01-7.62-9.7 64.21 64.21 0 01-7-16.44 88.53 88.53 0 01-2.59-13.3 68.63 68.63 0 01-.64-9.18v-8.48a43 43 0 01.34-5.31c.22-1.76.33-3.53.53-5.3.44-4 1.07-8 1.8-12 .68-3.74 1.45-7.45 2.21-11.17a15.46 15.46 0 01.65-2.33 2.78 2.78 0 012.58-1.89c.88-.06 1.77 0 2.66 0z"/>
</svg>
